<?xml version="1.0" encoding="iso-8859-1"?>
<!-- Generator: Adobe Illustrator 19.0.0, SVG Export Plug-In . SVG Version: 6.00 Build 0)  -->
<svg version="1.1" id="Layer_1" xmlns="http://www.w3.org/2000/svg" xmlns:xlink="http://www.w3.org/1999/xlink" x="0px" y="0px"
	 viewBox="0 0 512 512" style="enable-background:new 0 0 512 512;" xml:space="preserve">
<g>
	<path style="fill:#F4C49D;" d="M134.08,147.998c-22.218,0-40.228,18.01-40.228,40.228l0,0c0,22.218,18.01,40.227,40.228,40.227
		h18.462v-80.455H134.08z"/>
	<path style="fill:#F4C49D;" d="M377.92,147.998c22.218,0,40.228,18.01,40.228,40.228l0,0c0,22.218-18.01,40.227-40.228,40.227
		h-18.462v-80.455H377.92z"/>
	<rect x="221.329" y="282.194" style="fill:#F4C49D;" width="69.336" height="78.598"/>
</g>
<path style="opacity:0.15;fill:#333333;enable-background:new    ;" d="M221.33,333.866c11.124,2.691,22.731,4.127,34.67,4.127
	c11.939,0,23.546-1.437,34.67-4.127v-51.673h-69.34L221.33,333.866L221.33,333.866z"/>
<path style="fill:#FCCDA2;" d="M140.689,75.957c-6.527,15.186-10.141,31.918-10.141,49.495v65.087
	c0,69.285,56.167,125.452,125.452,125.452l0,0c69.285,0,125.452-56.167,125.452-125.452v-65.087c0-17.729-3.677-34.6-10.312-49.89
	L140.689,75.957z"/>
<g>
	<circle style="fill:#293133;" cx="197.183" cy="170.881" r="16.241"/>
	<circle style="fill:#293133;" cx="314.822" cy="170.881" r="16.241"/>
</g>
<path style="fill:#224973;" d="M323.561,349.791H188.439c-52.239,0-94.586,42.347-94.586,94.586v67.622h324.294v-67.622
	C418.148,392.139,375.799,349.791,323.561,349.791z"/>
<g>
	<path style="fill:#FFF9F2;" d="M152.542,356.862c-34.432,14.139-58.688,47.987-58.688,87.516V512h58.688V356.862z"/>
	<path style="fill:#FFF9F2;" d="M359.458,356.862c34.432,14.139,58.688,47.987,58.688,87.516V512h-58.688V356.862z"/>
	<path style="fill:#FFF9F2;" d="M256.003,466.107c0,0,55.177-77.436,82.087-115.204c-4.737-0.73-9.589-1.112-14.53-1.112H188.439
		c-4.939,0-9.788,0.382-14.524,1.111L256.003,466.107z"/>
</g>
<polygon style="fill:#FF99AA;" points="264.112,349.791 276.992,367.389 264.112,389.895 247.888,389.895 235.008,367.389 
	247.888,349.791 "/>
<polygon style="fill:#FF8095;" points="275.528,438.696 264.112,389.895 247.888,389.895 236.472,438.696 256.003,466.107 "/>
<g>
	<path style="fill:#293133;" d="M256.004,252.968c-18.655,0-36.094-4.518-46.647-12.084c-3.703-2.654-4.553-7.809-1.899-11.512
		c2.656-3.704,7.813-4.552,11.513-1.899c7.738,5.548,21.929,8.994,37.033,8.994c15.099,0,29.286-3.444,37.027-8.99
		c3.701-2.651,8.858-1.803,11.511,1.903c2.653,3.704,1.802,8.858-1.902,11.512C292.085,248.454,274.65,252.968,256.004,252.968z"/>
	<path style="fill:#293133;" d="M256,0L256,0c-59.856,0-109.913,41.922-122.432,98.004c4.246,7.83,12.537,13.148,22.07,13.148
		c13.857,0,25.091-11.234,25.091-25.09c0,13.857,11.234,25.09,25.09,25.09s25.091-11.234,25.091-25.09
		c0,13.857,11.234,25.09,25.09,25.09s25.091-11.234,25.091-25.09c0,13.857,11.234,25.09,25.09,25.09
		c13.856,0,25.09-11.234,25.09-25.09c0,13.857,11.234,25.09,25.091,25.09c9.533,0,17.824-5.318,22.07-13.148
		C365.913,41.922,315.856,0,256,0z"/>
</g>
<path style="opacity:0.1;fill:#333333;enable-background:new    ;" d="M140.689,75.957c-6.527,15.185-10.141,31.918-10.141,49.495
	v65.087c0,69.285,56.167,125.452,125.452,125.452l0,0c3.895,0,7.745-0.187,11.55-0.535c-63.87-5.831-113.902-59.528-113.902-124.918
	v-65.087c0-17.578,3.615-34.309,10.141-49.495C163.79,75.957,140.689,75.957,140.689,75.957z"/>
<path style="fill:#1C2223;" d="M156.668,98.004c11.704-52.432,56.223-92.48,110.881-97.47C263.745,0.186,259.895,0,256,0l0,0
	c-59.856,0-109.913,41.922-122.432,98.004c4.246,7.83,11.466,13.065,20.999,13.065L156.668,98.004z"/>
<g>
</g>
<g>
</g>
<g>
</g>
<g>
</g>
<g>
</g>
<g>
</g>
<g>
</g>
<g>
</g>
<g>
</g>
<g>
</g>
<g>
</g>
<g>
</g>
<g>
</g>
<g>
</g>
<g>
</g>
</svg>
